<svg width="256" height="256" viewBox="0 0 256 256" xmlns="http://www.w3.org/2000/svg" role="img" aria-label="Kelhe icon">
<rect x="6" y="6" width="244" height="244" rx="58" fill="#ffffff" stroke="#000000" stroke-width="10"/>
<g transform="translate(29,12) scale(1.1)" fill="#000000" fill-rule="evenodd"><path d="M22 26 L60 60 C66 56 74 54 90 54 C106 54 114 56 120 60 L158 26 C161 24 165 27 164 31 L150 92 C162 108 168 126 168 144 C168 160 158 174 142 184 C140 170 132 160 122 156 C112 168 102 174 90 174 C78 174 68 168 58 156 C48 160 40 170 38 184 C22 174 12 160 12 144 C12 126 18 108 30 92 L16 31 C15 27 19 24 22 26 Z M58 112 L80 120 L62 133 Z M122 112 L100 120 L118 133 Z M90 150 l-9 10 a9 8 0 0 0 18 0 Z"/></g>
</svg>
